HIERARCHY
ROOT Hips
{
	OFFSET	0.00	0.00	0.00
	CHANNELS 6 Xposition Yposition Zposition Zrotation Xrotation Yrotation
	JOINT LeftUpLeg
	{
		OFFSET	 0.126116	-0.014019	-0.065224
		CHANNELS 3 Zrotation Xrotation Yrotation
		JOINT LeftLeg
		{
			OFFSET	 0.000000	 0.000000	 0.569914
			CHANNELS 3 Zrotation Xrotation Yrotation
			JOINT LeftFoot
			{
				OFFSET	 0.000000	 0.000000	 0.544423
				CHANNELS 3 Zrotation Xrotation Yrotation
				JOINT LeftToeBase
				{
					OFFSET	 0.000000	 0.000000	 0.207117
					CHANNELS 3 Zrotation Xrotation Yrotation
					End Site
					{
						OFFSET	 0.000000	 0.000000	 0.207117
					}
				}
			}
		}
	}
	JOINT RightUpLeg
	{
		OFFSET	-0.124023	-0.008373	-0.065224
		CHANNELS 3 Zrotation Xrotation Yrotation
		JOINT RightLeg
		{
			OFFSET	 0.000000	 0.000000	 0.570047
			CHANNELS 3 Zrotation Xrotation Yrotation
			JOINT RightFoot
			{
				OFFSET	 0.000000	 0.000000	 0.544354
				CHANNELS 3 Zrotation Xrotation Yrotation
				JOINT RightToeBase
				{
					OFFSET	 0.000000	 0.000000	 0.207540
					CHANNELS 3 Zrotation Xrotation Yrotation
					End Site
					{
						OFFSET	 0.000000	 0.000000	 0.207540
					}
				}
			}
		}
	}
	JOINT Spine
	{
		OFFSET	 0.000184	-0.007763	 0.117403
		CHANNELS 3 Zrotation Xrotation Yrotation
		JOINT Spine1
		{
			OFFSET	 0.000000	 0.000000	 0.137269
			CHANNELS 3 Zrotation Xrotation Yrotation
			JOINT Spine2
			{
				OFFSET	 0.000000	 0.000000	 0.156879
				CHANNELS 3 Zrotation Xrotation Yrotation
				JOINT LeftShoulder
				{
					OFFSET	 0.080501	-0.002496	 0.160144
					CHANNELS 3 Zrotation Xrotation Yrotation
					JOINT LeftArm
					{
						OFFSET	 0.000000	 0.000000	 0.164363
						CHANNELS 3 Zrotation Xrotation Yrotation
						JOINT LeftForeArm
						{
							OFFSET	 0.000000	 0.000000	 0.364576
							CHANNELS 3 Zrotation Xrotation Yrotation
							JOINT LeftHand
							{
								OFFSET	 0.000000	 0.000000	 0.360812
								CHANNELS 3 Zrotation Xrotation Yrotation
								JOINT LeftHandIndex1
								{
									OFFSET	 0.000000	 0.000000	 0.086006
									CHANNELS 3 Zrotation Xrotation Yrotation
									JOINT LeftHandIndex2
									{
										OFFSET	 0.000000	 0.000000	 0.047236
										CHANNELS 3 Zrotation Xrotation Yrotation
										JOINT LeftHandIndex3
										{
											OFFSET	-0.004284	-0.000551	 0.038166
											CHANNELS 3 Zrotation Xrotation Yrotation
											End Site
											{
												OFFSET	-0.004284	-0.000551	 0.038166
											}
										}
									}
								}
							}
						}
					}
				}
				JOINT Neck
				{
					OFFSET	 0.000000	 0.000000	 0.176489
					CHANNELS 3 Zrotation Xrotation Yrotation
					JOINT Head
					{
						OFFSET	 0.000000	-0.001747	 0.077940
						CHANNELS 3 Zrotation Xrotation Yrotation
						End Site
						{
							OFFSET	 0.000000	-0.001747	 0.077940
						}
					}
				}
				JOINT RightShoulder
				{
					OFFSET	-0.080363	 0.000306	 0.159706
					CHANNELS 3 Zrotation Xrotation Yrotation
					JOINT RightArm
					{
						OFFSET	 0.000000	 0.000000	 0.164196
						CHANNELS 3 Zrotation Xrotation Yrotation
						JOINT RightForeArm
						{
							OFFSET	 0.000000	 0.000000	 0.365611
							CHANNELS 3 Zrotation Xrotation Yrotation
							JOINT RightHand
							{
								OFFSET	 0.000000	 0.000000	 0.360648
								CHANNELS 3 Zrotation Xrotation Yrotation
								JOINT RightHandIndex1
								{
									OFFSET	 0.000000	 0.000000	 0.069977
									CHANNELS 3 Zrotation Xrotation Yrotation
									JOINT RightHandIndex2
									{
										OFFSET	 0.000000	 0.000000	 0.052305
										CHANNELS 3 Zrotation Xrotation Yrotation
										JOINT RightHandIndex3
										{
											OFFSET	 0.009002	-0.000782	 0.042196
											CHANNELS 3 Zrotation Xrotation Yrotation
											End Site
											{
												OFFSET	 0.009002	-0.000782	 0.042196
											}
										}
									}
								}
							}
						}
					}
				}
			}
		}
	}
}
MOTION
Frames:    6
Frame Time: 0.03333334
 1.467337	 7.452676	-0.531200	-21.418110	 4.071192	-0.996179	 9.544561	 17.929320	-176.280500	-5.831913	-11.624680	 1.534574	-12.418860	 89.076980	 15.864820	-2.281790	 41.368080	-0.312934	 4.400071	-45.778760	-179.923100	-0.351430	-42.553790	 3.521954	-176.538300	 84.216870	-178.861100	 2.394313	 25.878930	-0.053432	-4.437503	 2.128737	 2.748889	-6.718467	-5.168938	 0.610230	-7.639709	-8.920755	-1.765867	-91.776180	 78.527400	 180.000000	 42.230590	 62.184230	-57.517990	-6.476203	-4.588447	-26.964180	 4.992780	-2.112507	-5.363969	-3.812334	 37.924440	-2.927599	-2.450526	 36.184240	 0.754587	-1.378229	 35.397820	-2.634230	-0.239146	 4.971091	-2.315794	-1.840152	-23.467670	-3.338446	 89.782090	 78.203890	-180.000000	-30.531630	 73.115050	 34.162140	 3.889325	-6.504558	 19.803050	-14.358340	-3.281549	 9.540119	 6.437017	 35.671460	-0.771858	 2.830251	 35.756010	-7.813440	-2.350882	 35.473990	 5.254307
 1.453145	 7.416553	-0.531304	-20.647570	 4.233190	-1.260180	 9.052592	 19.464670	-176.479200	-5.294174	-11.623910	 1.540579	-2.643699	 88.506550	 6.122763	-2.250825	 43.667760	-0.378727	 4.882457	-45.370590	-179.140900	 0.234211	-42.094130	 4.075902	-175.494300	 85.680350	-179.293500	 2.376491	 30.080760	 0.037029	-4.624348	 1.964920	 2.624228	-6.910675	-5.224052	 0.450180	-7.722992	-8.844883	-1.836351	-91.776180	 78.527400	 180.000000	 43.565240	 62.772920	-58.788410	-6.211640	-4.569215	-25.173260	 5.463754	-2.130109	-5.358840	-3.812334	 37.924440	-2.927599	-2.450526	 36.184240	 0.754587	-1.378229	 35.397820	-2.634230	-0.398234	 5.198684	-2.291218	-1.960166	-23.719530	-3.320007	 89.782120	 78.203870	 180.000000	-29.545880	 73.545170	 32.624410	 3.863199	-6.402015	 19.128280	-14.610770	-3.292066	 9.532273	 6.437017	 35.671460	-0.771858	 2.830251	 35.756010	-7.813440	-2.350882	 35.473990	 5.254307
 1.415817	 7.328875	-0.534042	-19.445400	 4.487465	-1.463459	 8.448980	 22.983170	-177.801900	-3.800622	-11.612590	 1.624838	 4.780168	 84.250630	-0.712757	-2.125300	 50.523610	-0.604744	 4.921231	-43.437810	-178.699200	 3.992759	-44.596330	 7.055801	 7.463479	 89.604850	-0.005810	 2.375201	 30.324060	 0.042426	-5.036315	 1.441356	 1.776066	-7.187536	-5.555479	 0.018414	-7.646930	-8.804933	-1.983652	-91.776170	 78.527420	-180.000000	 45.315910	 65.507310	-59.110310	-6.614136	-4.430848	-21.212420	 6.536133	-2.189586	-5.339215	-3.812334	 37.924440	-2.927599	-2.450526	 36.184240	 0.754587	-1.378229	 35.397820	-2.634230	-0.734099	 4.858533	-2.106147	-2.139665	-23.139370	-2.911468	 89.782120	 78.203870	 180.000000	-26.658500	 74.615030	 28.614030	 4.170230	-6.239950	 18.034600	-15.073840	-3.313893	 9.514605	 6.437017	 35.671460	-0.771858	 2.830251	 35.756010	-7.813440	-2.350882	 35.473990	 5.254307
 1.395929	 7.283767	-0.531563	-19.229340	 4.394492	-1.327821	 8.565621	 24.651970	-178.727800	-3.216831	-11.603230	 1.690821	 5.023601	 79.850330	-0.371170	-2.065543	 52.947430	-0.698969	 4.037683	-42.262600	-179.344300	 6.393678	-46.202880	 8.623273	 5.323492	 87.138370	 3.071038	 2.371028	 31.074580	 0.059224	-5.013267	 1.102185	 1.078485	-7.078369	-5.735397	-0.215172	-7.591495	-8.880888	-1.912230	-91.776180	 78.527400	 180.000000	 45.065640	 67.403510	-57.566730	-7.390140	-4.319605	-19.645860	 6.920244	-2.219200	-5.328422	-3.812334	 37.924440	-2.927599	-2.450526	 36.184240	 0.754587	-1.378229	 35.397820	-2.634230	-0.897337	 4.779946	-1.963595	-2.195620	-22.876790	-2.586880	 89.782100	 78.203870	-180.000000	-25.103330	 75.031420	 26.480270	 4.376154	-6.172640	 17.691250	-15.182070	-3.319109	 9.510762	 6.437017	 35.671460	-0.771858	 2.830251	 35.756010	-7.813440	-2.350882	 35.473990	 5.254307
 1.364623	 7.216165	-0.525034	-19.092020	 4.289632	-1.379910	 8.992289	 26.839600	-179.766800	-3.402086	-11.607720	 1.659201	 4.131275	 70.022090	 1.083231	-2.073655	 52.640690	-0.686520	 3.488424	-40.231500	 179.867000	 6.071509	-48.184550	 8.461678	 5.035291	 85.652240	 2.556267	 2.378803	 29.629910	 0.027069	-4.606674	 0.146004	 0.641049	-6.676213	-5.831736	-0.433711	-7.632100	-8.676826	-1.618855	-91.776180	 78.527400	-180.000000	 43.006500	 70.231140	-53.015630	-9.128135	-4.074708	-18.206480	 6.893759	-2.247392	-5.320065	-3.812334	 37.924440	-2.927599	-2.450526	 36.184240	 0.754587	-1.378229	 35.397820	-2.634230	-0.972419	 4.696606	-1.869550	-2.172817	-22.289220	-2.219154	 89.782090	 78.203830	-180.000000	-24.168560	 75.420320	 25.139060	 4.477113	-6.130061	 17.388920	-15.332050	-3.327417	 9.504125	 6.437017	 35.671460	-0.771858	 2.830251	 35.756010	-7.813440	-2.350882	 35.473990	 5.254307
 1.328889	 7.144620	-0.513684	-18.697460	 3.669623	-1.396007	 7.804843	 25.342950	 178.833800	-3.813325	-18.751030	 1.163432	 2.473831	 58.366460	 0.723654	-2.101152	 51.550590	-0.643552	 2.761162	-35.955450	 178.990600	 5.754403	-49.095540	 7.993762	 5.118175	 86.467480	 1.847735	 2.395109	 25.633940	-0.058556	-4.501728	 0.173693	 0.412986	-6.461965	-5.650520	-0.579161	-7.140324	-7.934592	-1.549173	-91.776180	 78.527400	-180.000000	 38.755470	 71.988730	-44.920670	-10.338360	-3.826119	-18.080300	 6.183341	-2.252231	-5.323291	-3.812334	 37.924440	-2.927599	-2.450526	 36.184240	 0.754587	-1.378229	 35.397820	-2.634230	-0.982527	 4.613730	-1.821835	-2.173927	-20.699820	-1.997690	 89.782120	 78.203870	 180.000000	-24.265920	 75.404090	 24.912700	 4.379096	-6.175802	 17.590180	-15.284030	-3.324458	 9.506095	 6.437017	 35.671460	-0.771858	 2.830251	 35.756010	-7.813440	-2.350882	 35.473990	 5.254307
